<?xml version="1.0" encoding="UTF-8"?><svg xmlns="http://www.w3.org/2000/svg" viewBox="0 0 789.18 160.3"><defs><style>.i{fill:#0c4d47;}</style></defs><g id="a"/><g id="b"/><g id="c"/><g id="d"/><g id="e"/><g id="f"/><g id="g"><g><g><path class="i" d="M553.11,93.94l-3.47-9.01h-14.8l-3.42,9.01h-9.53l14.67-37.54h11.58l14.61,37.54h-9.63Zm-6.66-17.61l-4.28-10.47-4.13,10.47h8.41Z"/><rect class="i" x="521.7" y="103.17" width="41.23" height="9.23"/></g><g><path class="i" d="M202.1,84.4c0-16.18,11.29-28.05,26.64-28.05,11.62,0,20.91,6.8,24.81,17.01l-11.87,.17c-2.9-4.31-7.55-6.97-12.94-6.97-9.21,0-15.85,7.55-15.85,17.84s6.64,17.76,15.85,17.76c7.47,0,13.28-5.06,15.27-12.36h-15.27v-9.71h26.3c.25,1.41,.33,2.82,.33,4.31,0,1.58-.08,3.32-.33,4.81-2.07,13.77-12.45,23.23-26.3,23.23-15.35,0-26.64-11.87-26.64-28.05Z"/><path class="i" d="M267.32,84.4c0-16.18,11.29-28.05,26.64-28.05s26.64,11.87,26.64,28.05-11.29,28.05-26.64,28.05-26.64-11.87-26.64-28.05Zm42.57,0c0-10.29-6.72-17.84-15.93-17.84s-15.85,7.55-15.85,17.84,6.64,17.76,15.85,17.76,15.93-7.55,15.93-17.76Z"/><path class="i" d="M335.12,57.43h10.29v44.23h30.7v9.71h-40.99V57.43Z"/><path class="i" d="M389.63,57.43h25.64c15.35,0,26.64,11.29,26.64,26.97s-11.29,26.97-26.64,26.97h-25.64V57.43Zm25.64,44.23c9.21,0,15.85-7.22,15.85-17.26s-6.64-17.26-15.85-17.26h-15.35v34.52h15.35Z"/><path class="i" d="M453.86,95.19h10.21c0,4.56,5.81,7.55,14.36,7.55,9.29,0,14.36-2.82,14.36-7.88,0-4.31-4.48-6.14-14.77-6.14-16.18,0-23.15-4.56-23.15-15.43s8.22-16.93,23.57-16.93c14.11,0,23.57,6.89,23.57,17.26h-10.21c0-4.56-5.39-7.55-13.36-7.55-8.63,0-13.28,2.49-13.28,7.22,0,4.07,4.07,5.73,13.86,5.73,16.84,0,24.06,4.81,24.06,15.85s-8.63,17.59-24.64,17.59c-14.69,0-24.56-6.89-24.56-17.26Z"/><path class="i" d="M582.31,57.43h10.29v53.94h-10.29V57.43Z"/><path class="i" d="M609.61,57.43h9.21l31.78,37.18V57.43h10.29v53.94h-9.29l-31.7-37.26v37.26h-10.29V57.43Z"/><path class="i" d="M694.75,67.14h-20.5v-9.71h51.28v9.71h-20.5v44.23h-10.29v-44.23Z"/><path class="i" d="M738.97,57.43h50.2v9.71h-39.91v12.36h29.71v9.71h-29.71v12.45h39.91v9.71h-50.2V57.43Z"/></g></g><g><path class="i" d="M76.04,160.3C34.11,160.3,0,126.19,0,84.26S34.11,8.22,76.04,8.22s76.04,34.11,76.04,76.04-34.11,76.04-76.04,76.04Zm0-142.07C39.62,18.22,10,47.85,10,84.26s29.62,66.04,66.04,66.04,66.04-29.62,66.04-66.04S112.45,18.22,76.04,18.22Z"/><path class="i" d="M102.86,89.27h-27.92v9.78h11.4v12.89h-20.81v-32.7h9.41v-9.79h-9.41v-12.88h20.81v23.33h14.48v-23.33h25.42l-6.94-9.78h-18.47v-1.19c0-3.44-1.37-6.65-3.79-9.35h-.01c-2.35-2.62-5.69-4.76-9.74-6.16-.01-.01-.02-.01-.03-.01-3.34-1.16-7.18-1.8-11.32-1.8-2.01,0-3.94,.15-5.77,.43-.03,0-.05,.01-.07,.01-6.64,1.05-12.04,3.86-15.37,7.65-2.35,2.68-3.68,5.84-3.68,9.23v1.19h-2.16c-8.87,.06-16.11,7.34-16.11,16.22s7.24,16.16,16.1,16.22c.05,.01,.08,.01,.13,.01h2.03v32.7H25.64l6.94,9.79h18.46v1.19c0,2.99,1.04,5.8,2.9,8.26,3.24,4.28,8.97,7.47,16.15,8.6,.03,.01,.05,.02,.09,.02,1.83,.29,3.75,.44,5.75,.44,4.15,0,7.97-.65,11.31-1.8,.01,0,.03,0,.04-.01,4.54-1.56,8.18-4.05,10.54-7.11,1.93-2.49,3-5.36,3-8.4v-1.19h2.04s.08,0,.12-.01c8.87-.07,16.11-7.34,16.11-16.23s-7.3-16.22-16.23-16.22Zm-37.33-43.67c0-3.77,4.72-6.89,10.41-6.89s10.4,3.12,10.4,6.89v1.19h-20.81v-1.19Zm-16.65,23.85c-3.47-.06-6.32-2.95-6.32-6.44s2.85-6.38,6.32-6.44h2.16v12.88h-2.16Zm37.46,53.47c0,3.76-4.72,6.88-10.41,6.88s-10.4-3.12-10.4-6.88v-1.2h20.81v1.2Zm16.65-10.98h-2.16v-12.89h2.16c3.47,.06,6.32,2.96,6.32,6.44s-2.85,6.38-6.32,6.45Z"/></g></g><g id="h"/></svg>