<?xml version="1.0" encoding="UTF-8"?><svg xmlns="http://www.w3.org/2000/svg" xmlns:xlink="http://www.w3.org/1999/xlink" viewBox="0 0 587.07 56.09"><defs><style>.u{fill:#0c4d47;}</style></defs><g id="a"/><g id="b"/><g id="c"/><g id="d"><g id="e"><a xlink:href="77.6937254901961"><rect id="f" class="u" x="319.6" y="46.81" width="41.23" height="9.23"/></a><path id="g" class="u" d="M351.01,37.58l-3.47-9.01h-14.8l-3.42,9.01h-9.53L334.45,.05h11.58l14.61,37.54h-9.63Zm-6.66-17.61l-4.28-10.47-4.13,10.47h8.41Z"/><path id="h" class="u" d="M0,28.05C0,11.87,11.29,0,26.64,0c11.62,0,20.91,6.8,24.81,17.01l-11.87,.17c-2.9-4.31-7.55-6.97-12.94-6.97-9.21,0-15.85,7.55-15.85,17.84s6.64,17.76,15.85,17.76c7.47,0,13.28-5.06,15.27-12.36h-15.27v-9.71h26.3c.25,1.41,.33,2.82,.33,4.31,0,1.58-.08,3.32-.33,4.81-2.07,13.77-12.45,23.23-26.3,23.23C11.29,56.09,0,44.23,0,28.05Z"/><path id="i" class="u" d="M65.22,28.05c0-16.18,11.29-28.05,26.64-28.05s26.64,11.87,26.64,28.05-11.29,28.05-26.64,28.05-26.64-11.87-26.64-28.05Zm42.57,0c0-10.29-6.72-17.84-15.93-17.84s-15.85,7.55-15.85,17.84,6.64,17.76,15.85,17.76,15.93-7.55,15.93-17.76Z"/><path id="j" class="u" d="M133.01,1.08h10.29V45.31h30.7v9.71h-40.99V1.08Z"/><path id="k" class="u" d="M187.53,1.08h25.64c15.35,0,26.64,11.29,26.64,26.97s-11.29,26.97-26.64,26.97h-25.64V1.08Zm25.64,44.23c9.21,0,15.85-7.22,15.85-17.26s-6.64-17.26-15.85-17.26h-15.35V45.31h15.35Z"/><path id="l" class="u" d="M251.76,38.84h10.21c0,4.56,5.81,7.55,14.36,7.55,9.29,0,14.36-2.82,14.36-7.88,0-4.31-4.48-6.14-14.77-6.14-16.18,0-23.15-4.56-23.15-15.43S260.97,0,276.32,0c14.11,0,23.57,6.89,23.57,17.26h-10.21c0-4.56-5.39-7.55-13.36-7.55-8.63,0-13.28,2.49-13.28,7.22,0,4.07,4.07,5.73,13.86,5.73,16.84,0,24.06,4.81,24.06,15.85s-8.63,17.59-24.64,17.59c-14.69,0-24.56-6.89-24.56-17.26Z"/><path id="m" class="u" d="M380.21,1.08h10.29V55.02h-10.29V1.08Z"/><path id="n" class="u" d="M407.51,1.08h9.21l31.78,37.18V1.08h10.29V55.02h-9.29l-31.7-37.26V55.02h-10.29V1.08Z"/><path id="o" class="u" d="M492.64,10.79h-20.5V1.08h51.28V10.79h-20.5V55.02h-10.29V10.79Z"/><path id="p" class="u" d="M536.87,1.08h50.2V10.79h-39.91v12.36h29.71v9.71h-29.71v12.45h39.91v9.71h-50.2V1.08Z"/></g></g><g id="q"/><g id="r"/><g id="s"/><g id="t"/></svg>